<?xml version="1.0" encoding="UTF-8"?>
<!DOCTYPE svg PUBLIC "-//W3C//DTD SVG 1.1//EN" "http://www.w3.org/Graphics/SVG/1.1/DTD/svg11.dtd">
<svg xmlns="http://www.w3.org/2000/svg" version="1.1" width="1280px" height="1280px" style="shape-rendering:geometricPrecision; text-rendering:geometricPrecision; image-rendering:optimizeQuality; fill-rule:evenodd; clip-rule:evenodd" xmlns:xlink="http://www.w3.org/1999/xlink">
<g><path style="opacity:0.993" fill="#ffffff" d="M 604.5,1.5 C 735.592,-4.40257 857.259,25.7641 969.5,92C 1107.24,177.807 1201.08,298.307 1251,453.5C 1299.2,622.441 1283.54,784.775 1204,940.5C 1119.36,1093.77 993.527,1197.6 826.5,1252C 657.179,1300.4 494.512,1284.56 338.5,1204.5C 168.94,1109.69 61.2731,967.524 15.5,778C -15.779,624.487 4.05433,478.32 75,339.5C 164.399,178.196 297.899,72.363 475.5,22C 517.976,10.8083 560.976,3.97502 604.5,1.5 Z"/></g>
<g><path style="opacity:0.004" fill="#000000" d="M 96.5,147.5 C 97.8333,148.167 97.8333,148.167 96.5,147.5 Z"/></g>
<g><path style="opacity:0.004" fill="#000000" d="M 95.5,150.5 C 96.8333,151.167 96.8333,151.167 95.5,150.5 Z"/></g>
<g><path style="opacity:1" fill="#ffffff" d="M 663.5,177.5 C 669.176,177.334 674.843,177.501 680.5,178C 682.382,178.198 684.048,178.698 685.5,179.5C 677.972,179.374 670.639,178.707 663.5,177.5 Z"/></g>
<g><path style="opacity:1" fill="#000000" d="M 663.5,177.5 C 670.639,178.707 677.972,179.374 685.5,179.5C 685.833,179.5 686.167,179.5 686.5,179.5C 693.224,181.508 700.224,182.508 707.5,182.5C 708.5,182.5 709.5,182.5 710.5,182.5C 723.055,185.252 735.722,187.919 748.5,190.5C 751.5,191.167 754.5,191.833 757.5,192.5C 762.126,194.832 767.126,196.165 772.5,196.5C 790.256,202.081 807.589,208.414 824.5,215.5C 827.74,217.951 831.407,219.618 835.5,220.5C 837.509,222.065 839.843,223.065 842.5,223.5C 845.833,225.167 849.167,226.833 852.5,228.5C 854.033,230.245 856.033,231.245 858.5,231.5C 888.555,247.861 916.555,267.194 942.5,289.5C 918.961,290.818 895.294,290.818 871.5,289.5C 818.364,255.788 760.698,234.121 698.5,224.5C 687.804,221.84 676.804,220.84 665.5,221.5C 571.481,216.736 485.147,239.736 406.5,290.5C 383.498,290.667 360.498,290.5 337.5,290C 338.71,288.961 339.71,287.794 340.5,286.5C 373.665,257.336 410.665,234.336 451.5,217.5C 453.674,217.25 455.341,216.25 456.5,214.5C 461.67,211.909 467.003,209.909 472.5,208.5C 475.397,207.871 478.064,206.871 480.5,205.5C 481.635,203.787 483.302,203.12 485.5,203.5C 491.767,202.078 497.767,200.078 503.5,197.5C 504.568,196.566 505.901,196.232 507.5,196.5C 511.162,196.277 514.495,195.277 517.5,193.5C 518.791,193.737 519.791,193.404 520.5,192.5C 523.152,192.59 525.485,191.924 527.5,190.5C 531.076,189.515 534.742,188.848 538.5,188.5C 543.894,188.876 548.894,187.876 553.5,185.5C 553.833,185.5 554.167,185.5 554.5,185.5C 564.747,184.58 574.747,182.913 584.5,180.5C 610.771,178.032 637.105,177.032 663.5,177.5 Z"/></g>
<g><path style="opacity:1" fill="#ffffff" d="M 663.5,177.5 C 637.105,177.032 610.771,178.032 584.5,180.5C 594.599,178.555 604.932,177.388 615.5,177C 631.672,176.172 647.672,176.339 663.5,177.5 Z"/></g>
<g><path style="opacity:1" fill="#ffffff" d="M 686.5,179.5 C 693.719,179.884 700.719,180.884 707.5,182.5C 700.224,182.508 693.224,181.508 686.5,179.5 Z"/></g>
<g><path style="opacity:1" fill="#ffffff" d="M 710.5,182.5 C 723.648,183.528 736.315,186.195 748.5,190.5C 735.722,187.919 723.055,185.252 710.5,182.5 Z"/></g>
<g><path style="opacity:1" fill="#ffffff" d="M 584.5,180.5 C 574.747,182.913 564.747,184.58 554.5,185.5C 564.165,182.571 574.165,180.904 584.5,180.5 Z"/></g>
<g><path style="opacity:1" fill="#ffffff" d="M 553.5,185.5 C 548.894,187.876 543.894,188.876 538.5,188.5C 543.106,186.124 548.106,185.124 553.5,185.5 Z"/></g>
<g><path style="opacity:1" fill="#ffffff" d="M 527.5,190.5 C 525.485,191.924 523.152,192.59 520.5,192.5C 522.515,191.076 524.848,190.41 527.5,190.5 Z"/></g>
<g><path style="opacity:1" fill="#ffffff" d="M 757.5,192.5 C 763.174,191.844 768.174,193.177 772.5,196.5C 767.126,196.165 762.126,194.832 757.5,192.5 Z"/></g>
<g><path style="opacity:1" fill="#ffffff" d="M 517.5,193.5 C 514.495,195.277 511.162,196.277 507.5,196.5C 510.505,194.723 513.838,193.723 517.5,193.5 Z"/></g>
<g><path style="opacity:0.008" fill="#000000" d="M 65.5,200.5 C 67.7602,201.238 67.9269,202.238 66,203.5C 65.5172,202.552 65.3505,201.552 65.5,200.5 Z"/></g>
<g><path style="opacity:1" fill="#ffffff" d="M 503.5,197.5 C 497.767,200.078 491.767,202.078 485.5,203.5C 491.085,200.527 497.085,198.527 503.5,197.5 Z"/></g>
<g><path style="opacity:1" fill="#ffffff" d="M 480.5,205.5 C 478.064,206.871 475.397,207.871 472.5,208.5C 474.617,206.345 477.284,205.345 480.5,205.5 Z"/></g>
<g><path style="opacity:1" fill="#ffffff" d="M 456.5,214.5 C 455.341,216.25 453.674,217.25 451.5,217.5C 452.486,215.592 454.152,214.592 456.5,214.5 Z"/></g>
<g><path style="opacity:1" fill="#ffffff" d="M 824.5,215.5 C 828.836,215.837 832.503,217.504 835.5,220.5C 831.407,219.618 827.74,217.951 824.5,215.5 Z"/></g>
<g><path style="opacity:0.004" fill="#000000" d="M 55.5,218.5 C 56.8333,219.167 56.8333,219.167 55.5,218.5 Z"/></g>
<g><path style="opacity:1" fill="#ffffff" d="M 835.5,220.5 C 838.491,220.166 840.824,221.166 842.5,223.5C 839.843,223.065 837.509,222.065 835.5,220.5 Z"/></g>
<g><path style="opacity:0.004" fill="#000000" d="M 54.5,221.5 C 55.8333,222.167 55.8333,222.167 54.5,221.5 Z"/></g>
<g><path style="opacity:1" fill="#ffffff" d="M 665.5,221.5 C 676.804,220.84 687.804,221.84 698.5,224.5C 687.391,223.387 676.391,222.387 665.5,221.5 Z"/></g>
<g><path style="opacity:1" fill="#ffffff" d="M 852.5,228.5 C 854.967,228.755 856.967,229.755 858.5,231.5C 856.033,231.245 854.033,230.245 852.5,228.5 Z"/></g>
<g><path style="opacity:0.004" fill="#000000" d="M 14.5,290.5 C 15.8333,291.167 15.8333,291.167 14.5,290.5 Z"/></g>
<g><path style="opacity:1" fill="#ffffff" d="M 340.5,286.5 C 339.71,287.794 338.71,288.961 337.5,290C 360.498,290.5 383.498,290.667 406.5,290.5C 382.67,291.663 358.67,291.83 334.5,291C 336.114,288.873 338.114,287.373 340.5,286.5 Z"/></g>
<g><path style="opacity:1" fill="#ffffff" d="M 871.5,289.5 C 895.294,290.818 918.961,290.818 942.5,289.5C 943.376,289.369 944.043,289.702 944.5,290.5C 920.507,291.666 896.507,291.833 872.5,291C 871.944,290.617 871.611,290.117 871.5,289.5 Z"/></g>
<g><path style="opacity:0.006" fill="#000000" d="M 6.5,304.5 C 7.52502,304.897 7.69169,305.563 7,306.5C 6.53566,305.906 6.36899,305.239 6.5,304.5 Z"/></g>
<g><path style="opacity:0.011" fill="#000000" d="M 4.5,306.5 C 6.76023,307.238 6.9269,308.238 5,309.5C 4.51722,308.552 4.35055,307.552 4.5,306.5 Z"/></g>
<g><path style="opacity:1" fill="#ffffff" d="M 742.5,341.5 C 752.319,340.506 762.319,340.173 772.5,340.5C 772.737,341.791 772.404,342.791 771.5,343.5C 771.5,343.167 771.5,342.833 771.5,342.5C 762.014,341.506 752.348,341.173 742.5,341.5 Z"/></g>
<g><path style="opacity:1" fill="#ffffff" d="M 134.5,342.5 C 191.499,341.833 248.666,341.5 306,341.5C 363.504,341.5 420.671,342.167 477.5,343.5C 363.237,342.502 248.904,342.169 134.5,342.5 Z"/></g>
<g><path style="opacity:1" fill="#ffffff" d="M 742.5,341.5 C 752.348,341.173 762.014,341.506 771.5,342.5C 683.16,341.836 595.16,342.503 507.5,344.5C 506.596,343.791 506.263,342.791 506.5,341.5C 585.167,341.5 663.833,341.5 742.5,341.5 Z"/></g>
<g><path style="opacity:0.004" fill="#000000" d="M 3.5,342.5 C 4.83333,343.167 4.83333,343.167 3.5,342.5 Z"/></g>
<g><path style="opacity:1" fill="#000000" d="M 134.5,342.5 C 248.904,342.169 363.237,342.502 477.5,343.5C 526.966,428.066 575.966,512.9 624.5,598C 602.785,635.91 580.785,673.743 558.5,711.5C 548.246,694.66 538.246,677.66 528.5,660.5C 528.573,658.973 527.906,657.973 526.5,657.5C 522.831,650.829 519.165,644.162 515.5,637.5C 488.338,636.502 461.005,636.169 433.5,636.5C 433.263,637.791 433.596,638.791 434.5,639.5C 455.891,675.57 476.891,711.903 497.5,748.5C 497.427,750.027 498.094,751.027 499.5,751.5C 506.011,761.853 512.011,772.52 517.5,783.5C 500.865,811.109 485.032,839.109 470,867.5C 466.03,873.479 462.03,879.479 458,885.5C 456.278,888.279 455.111,891.279 454.5,894.5C 453.5,894.5 452.5,894.5 451.5,894.5C 439.289,871.081 426.289,848.081 412.5,825.5C 412.573,823.973 411.906,822.973 410.5,822.5C 408.75,818.665 406.75,814.999 404.5,811.5C 404.573,809.973 403.906,808.973 402.5,808.5C 313.245,653.349 223.912,498.016 134.5,342.5 Z"/></g>
<g><path style="opacity:1" fill="#000000" d="M 771.5,342.5 C 771.5,342.833 771.5,343.167 771.5,343.5C 727.478,419.551 683.478,495.551 639.5,571.5C 595.241,495.982 551.241,420.315 507.5,344.5C 595.16,342.503 683.16,341.836 771.5,342.5 Z"/></g>
<g><path style="opacity:1" fill="#000000" d="M 513.5,1000.5 C 513.573,998.973 512.906,997.973 511.5,997.5C 497.256,972.221 482.923,946.888 468.5,921.5C 470.373,916.382 472.54,911.382 475,906.5C 481.191,896.108 487.357,885.775 493.5,875.5C 494.906,875.027 495.573,874.027 495.5,872.5C 509.703,846.437 524.703,820.77 540.5,795.5C 541.906,795.027 542.573,794.027 542.5,792.5C 560.28,761.328 577.78,729.994 595,698.5C 613.931,667.633 632.598,636.633 651,605.5C 701.746,517.813 751.913,429.98 801.5,342C 917.166,341.5 1032.83,341.333 1148.5,341.5C 1092.7,440.01 1036.37,538.343 979.5,636.5C 907.836,637.333 836.169,637.833 764.5,638C 725.535,706.777 685.701,774.943 645,842.5C 608.757,905.314 572.757,968.314 537,1031.5C 536.221,1032.73 535.221,1033.73 534,1034.5C 526.544,1023.54 519.711,1012.21 513.5,1000.5 Z"/></g>
<g><path style="opacity:0.01" fill="#000000" d="M 1.5,358.5 C 1.51731,356.972 2.18398,356.472 3.5,357C 2.9558,357.717 2.28913,358.217 1.5,358.5 Z"/></g>
<g><path style="opacity:0.004" fill="#000000" d="M 1.5,358.5 C 0.833333,359.167 0.833333,359.167 1.5,358.5 Z"/></g>
<g><path style="opacity:1" fill="#ffffff" d="M 410.5,455.5 C 383.146,454.842 356.146,455.509 329.5,457.5C 328.596,456.791 328.263,455.791 328.5,454.5C 356.005,454.169 383.338,454.502 410.5,455.5 Z"/></g>
<g><path style="opacity:1" fill="#ffffff" d="M 869.5,455.5 C 897.662,454.502 925.995,454.169 954.5,454.5C 954.737,455.791 954.404,456.791 953.5,457.5C 925.853,455.508 897.853,454.842 869.5,455.5 Z"/></g>
<g><path style="opacity:1" fill="#ffffff" d="M 410.5,455.5 C 422.478,476.487 434.478,497.487 446.5,518.5C 446.5,519.5 446.5,520.5 446.5,521.5C 419.833,521.5 393.167,521.5 366.5,521.5C 354.655,499.8 342.321,478.466 329.5,457.5C 356.146,455.509 383.146,454.842 410.5,455.5 Z"/></g>
<g><path style="opacity:1" fill="#ffffff" d="M 869.5,455.5 C 897.853,454.842 925.853,455.508 953.5,457.5C 941.182,478.798 928.848,500.131 916.5,521.5C 888.48,522.158 860.813,521.492 833.5,519.5C 845.528,498.103 857.528,476.769 869.5,455.5 Z"/></g>
<g><path style="opacity:1" fill="#ffffff" d="M 446.5,518.5 C 447.338,518.842 447.672,519.508 447.5,520.5C 421.188,522.491 394.521,523.158 367.5,522.5C 366.833,522.5 366.5,522.167 366.5,521.5C 393.167,521.5 419.833,521.5 446.5,521.5C 446.5,520.5 446.5,519.5 446.5,518.5 Z"/></g>
<g><path style="opacity:1" fill="#ffffff" d="M 833.5,519.5 C 860.813,521.492 888.48,522.158 916.5,521.5C 888.33,522.829 859.997,522.829 831.5,521.5C 831.855,520.478 832.522,519.811 833.5,519.5 Z"/></g>
<g><path style="opacity:1" fill="#ffffff" d="M 447.5,520.5 C 448.404,521.209 448.737,522.209 448.5,523.5C 421.328,523.831 394.328,523.498 367.5,522.5C 394.521,523.158 421.188,522.491 447.5,520.5 Z"/></g>
<g><path style="opacity:1" fill="#000000" d="M 505.5,1087.5 C 505.53,1088.5 505.03,1089.16 504,1089.5C 500.283,1087.98 496.449,1086.98 492.5,1086.5C 488.156,1085.44 483.823,1084.28 479.5,1083C 472.986,1080.31 466.653,1077.47 460.5,1074.5C 458.316,1072.42 455.649,1071.42 452.5,1071.5C 449.503,1068.5 445.836,1066.84 441.5,1066.5C 439.847,1066.34 438.514,1065.67 437.5,1064.5C 435.967,1062.75 433.967,1061.75 431.5,1061.5C 397.849,1045.67 367.183,1025.34 339.5,1000.5C 338.415,998.413 336.749,997.08 334.5,996.5C 329.206,992.873 324.539,988.54 320.5,983.5C 317.769,979.766 314.436,976.766 310.5,974.5C 306.167,969.5 301.5,964.833 296.5,960.5C 295.92,958.251 294.587,956.585 292.5,955.5C 255.696,913.904 227.029,867.237 206.5,815.5C 206.065,812.843 205.065,810.509 203.5,808.5C 198.652,794.062 193.985,779.729 189.5,765.5C 189.59,762.848 188.924,760.515 187.5,758.5C 185.812,748.417 183.812,738.417 181.5,728.5C 181.247,724.96 180.581,721.627 179.5,718.5C 177.267,705.934 175.933,693.268 175.5,680.5C 175.106,659.501 174.773,638.501 174.5,617.5C 174.5,613.5 174.5,609.5 174.5,605.5C 175.889,600.731 176.556,595.731 176.5,590.5C 176.5,590.167 176.5,589.833 176.5,589.5C 178.678,581.092 180.011,572.425 180.5,563.5C 180.674,561.139 181.007,558.806 181.5,556.5C 183.956,552.274 184.956,547.607 184.5,542.5C 184.678,539.784 185.178,537.117 186,534.5C 197.892,553.785 209.392,573.285 220.5,593C 206.588,737.29 251.922,859.29 356.5,959C 392.057,990.102 431.39,1015.1 474.5,1034C 485.088,1051.74 495.422,1069.57 505.5,1087.5 Z"/></g>
<g><path style="opacity:1" fill="#000000" d="M 1097.5,554.5 C 1097.96,562.768 1099.29,570.768 1101.5,578.5C 1101.5,579.5 1101.5,580.5 1101.5,581.5C 1104.93,610.391 1106.26,639.391 1105.5,668.5C 1104.75,676.822 1104.08,685.155 1103.5,693.5C 1102.03,697.919 1101.36,702.586 1101.5,707.5C 1100.14,719.611 1098.14,731.611 1095.5,743.5C 1094.08,745.515 1093.41,747.848 1093.5,750.5C 1091.77,759.687 1089.44,768.687 1086.5,777.5C 1085.08,779.515 1084.41,781.848 1084.5,784.5C 1082.55,789.406 1080.88,794.406 1079.5,799.5C 1077.93,801.509 1076.93,803.843 1076.5,806.5C 1075.17,810.172 1073.83,813.838 1072.5,817.5C 1070.93,819.509 1069.93,821.843 1069.5,824.5C 1068.42,827.648 1067.09,830.648 1065.5,833.5C 1063.93,835.509 1062.93,837.843 1062.5,840.5C 1048.47,869.57 1032.13,897.237 1013.5,923.5C 1011.41,924.585 1010.08,926.251 1009.5,928.5C 1007.74,929.262 1006.74,930.596 1006.5,932.5C 1004.41,933.585 1003.08,935.251 1002.5,937.5C 998.155,941.847 994.155,946.514 990.5,951.5C 988.413,952.585 987.08,954.251 986.5,956.5C 985.5,956.833 984.833,957.5 984.5,958.5C 979.106,962.892 974.439,967.892 970.5,973.5C 968.81,973.856 967.81,974.856 967.5,976.5C 963.564,978.766 960.231,981.766 957.5,985.5C 937.215,1003.63 915.882,1020.29 893.5,1035.5C 890.296,1036.38 887.629,1038.05 885.5,1040.5C 883.436,1040.76 882.103,1041.93 881.5,1044C 875.891,1045.47 870.891,1047.97 866.5,1051.5C 864.326,1051.75 862.659,1052.75 861.5,1054.5C 857.182,1055.99 853.182,1057.99 849.5,1060.5C 845.849,1061.66 842.515,1063.33 839.5,1065.5C 835.158,1066.94 831.158,1068.94 827.5,1071.5C 823.259,1072.62 819.259,1074.29 815.5,1076.5C 810.548,1076.84 806.215,1078.51 802.5,1081.5C 800.597,1081.8 798.93,1082.46 797.5,1083.5C 790.378,1085.1 783.378,1087.1 776.5,1089.5C 787.444,1070.2 798.444,1050.87 809.5,1031.5C 934.243,973.242 1014.74,877.576 1051,744.5C 1060.83,701.726 1064.5,658.392 1062,614.5C 1061.6,608.89 1060.77,603.39 1059.5,598C 1071,578.5 1082.5,559 1094,539.5C 1095.64,544.402 1096.81,549.402 1097.5,554.5 Z"/></g>
<g><path style="opacity:1" fill="#ffffff" d="M 184.5,542.5 C 184.956,547.607 183.956,552.274 181.5,556.5C 182.133,551.64 183.133,546.973 184.5,542.5 Z"/></g>
<g><path style="opacity:1" fill="#ffffff" d="M 1097.5,554.5 C 1099.71,562.232 1101.04,570.232 1101.5,578.5C 1099.29,570.768 1097.96,562.768 1097.5,554.5 Z"/></g>
<g><path style="opacity:1" fill="#ffffff" d="M 180.5,563.5 C 180.011,572.425 178.678,581.092 176.5,589.5C 176.825,580.549 178.158,571.883 180.5,563.5 Z"/></g>
<g><path style="opacity:1" fill="#ffffff" d="M 1101.5,581.5 C 1103.91,593.578 1105.41,605.911 1106,618.5C 1106.83,635.338 1106.66,652.005 1105.5,668.5C 1106.26,639.391 1104.93,610.391 1101.5,581.5 Z"/></g>
<g><path style="opacity:1" fill="#ffffff" d="M 176.5,590.5 C 176.556,595.731 175.889,600.731 174.5,605.5C 174.302,600.25 174.969,595.25 176.5,590.5 Z"/></g>
<g><path style="opacity:1" fill="#ffffff" d="M 515.5,637.5 C 488.146,636.842 461.146,637.509 434.5,639.5C 433.596,638.791 433.263,637.791 433.5,636.5C 461.005,636.169 488.338,636.502 515.5,637.5 Z"/></g>
<g><path style="opacity:1" fill="#ffffff" d="M 174.5,617.5 C 174.773,638.501 175.106,659.501 175.5,680.5C 174.006,668.034 173.339,655.367 173.5,642.5C 173.5,633.993 173.834,625.66 174.5,617.5 Z"/></g>
<g><path style="opacity:1" fill="#ffffff" d="M 526.5,657.5 C 527.906,657.973 528.573,658.973 528.5,660.5C 527.094,660.027 526.427,659.027 526.5,657.5 Z"/></g>
<g><path style="opacity:1" fill="#000000" d="M 547.5,1058.5 C 548.167,1057.83 548.833,1057.17 549.5,1056.5C 615.565,942.712 681.398,828.712 747,714.5C 758.375,697.875 768.542,680.541 777.5,662.5C 839.504,662.167 901.504,662.5 963.5,663.5C 856.906,849.029 750.072,1034.36 643,1219.5C 641.989,1220.34 640.822,1220.67 639.5,1220.5C 639.649,1219.45 639.483,1218.45 639,1217.5C 607.971,1164.77 577.471,1111.77 547.5,1058.5 Z"/></g>
<g><path style="opacity:1" fill="#ffffff" d="M 1103.5,693.5 C 1103.64,698.414 1102.97,703.081 1101.5,707.5C 1101.36,702.586 1102.03,697.919 1103.5,693.5 Z"/></g>
<g><path style="opacity:1" fill="#ffffff" d="M 179.5,718.5 C 180.581,721.627 181.247,724.96 181.5,728.5C 180.778,728.082 180.278,727.416 180,726.5C 179.503,723.854 179.336,721.187 179.5,718.5 Z"/></g>
<g><path style="opacity:1" fill="#ffffff" d="M 1095.5,743.5 C 1095.59,746.152 1094.92,748.485 1093.5,750.5C 1093.41,747.848 1094.08,745.515 1095.5,743.5 Z"/></g>
<g><path style="opacity:1" fill="#ffffff" d="M 497.5,748.5 C 498.906,748.973 499.573,749.973 499.5,751.5C 498.094,751.027 497.427,750.027 497.5,748.5 Z"/></g>
<g><path style="opacity:1" fill="#ffffff" d="M 187.5,758.5 C 188.924,760.515 189.59,762.848 189.5,765.5C 188.076,763.485 187.41,761.152 187.5,758.5 Z"/></g>
<g><path style="opacity:1" fill="#ffffff" d="M 1086.5,777.5 C 1086.59,780.152 1085.92,782.485 1084.5,784.5C 1084.41,781.848 1085.08,779.515 1086.5,777.5 Z"/></g>
<g><path style="opacity:1" fill="#ffffff" d="M 542.5,792.5 C 542.573,794.027 541.906,795.027 540.5,795.5C 540.427,793.973 541.094,792.973 542.5,792.5 Z"/></g>
<g><path style="opacity:1" fill="#ffffff" d="M 1079.5,799.5 C 1079.83,802.491 1078.83,804.824 1076.5,806.5C 1076.93,803.843 1077.93,801.509 1079.5,799.5 Z"/></g>
<g><path style="opacity:1" fill="#ffffff" d="M 402.5,808.5 C 403.906,808.973 404.573,809.973 404.5,811.5C 403.094,811.027 402.427,810.027 402.5,808.5 Z"/></g>
<g><path style="opacity:1" fill="#ffffff" d="M 203.5,808.5 C 205.065,810.509 206.065,812.843 206.5,815.5C 204.166,813.824 203.166,811.491 203.5,808.5 Z"/></g>
<g><path style="opacity:1" fill="#ffffff" d="M 1072.5,817.5 C 1072.83,820.491 1071.83,822.824 1069.5,824.5C 1069.93,821.843 1070.93,819.509 1072.5,817.5 Z"/></g>
<g><path style="opacity:1" fill="#ffffff" d="M 410.5,822.5 C 411.906,822.973 412.573,823.973 412.5,825.5C 411.094,825.027 410.427,824.027 410.5,822.5 Z"/></g>
<g><path style="opacity:1" fill="#ffffff" d="M 1065.5,833.5 C 1065.83,836.491 1064.83,838.824 1062.5,840.5C 1062.93,837.843 1063.93,835.509 1065.5,833.5 Z"/></g>
<g><path style="opacity:1" fill="#ffffff" d="M 495.5,872.5 C 495.573,874.027 494.906,875.027 493.5,875.5C 493.427,873.973 494.094,872.973 495.5,872.5 Z"/></g>
<g><path style="opacity:1" fill="#ffffff" d="M 1013.5,923.5 C 1012.92,925.749 1011.59,927.415 1009.5,928.5C 1010.08,926.251 1011.41,924.585 1013.5,923.5 Z"/></g>
<g><path style="opacity:1" fill="#ffffff" d="M 1006.5,932.5 C 1005.92,934.749 1004.59,936.415 1002.5,937.5C 1003.08,935.251 1004.41,933.585 1006.5,932.5 Z"/></g>
<g><path style="opacity:1" fill="#ffffff" d="M 990.5,951.5 C 989.92,953.749 988.587,955.415 986.5,956.5C 987.08,954.251 988.413,952.585 990.5,951.5 Z"/></g>
<g><path style="opacity:1" fill="#ffffff" d="M 292.5,955.5 C 294.587,956.585 295.92,958.251 296.5,960.5C 294.413,959.415 293.08,957.749 292.5,955.5 Z"/></g>
<g><path style="opacity:1" fill="#ffffff" d="M 984.5,958.5 C 980.561,964.108 975.894,969.108 970.5,973.5C 974.439,967.892 979.106,962.892 984.5,958.5 Z"/></g>
<g><path style="opacity:1" fill="#ffffff" d="M 310.5,974.5 C 314.436,976.766 317.769,979.766 320.5,983.5C 316.564,981.234 313.231,978.234 310.5,974.5 Z"/></g>
<g><path style="opacity:1" fill="#ffffff" d="M 967.5,976.5 C 964.769,980.234 961.436,983.234 957.5,985.5C 960.231,981.766 963.564,978.766 967.5,976.5 Z"/></g>
<g><path style="opacity:1" fill="#ffffff" d="M 334.5,996.5 C 336.749,997.08 338.415,998.413 339.5,1000.5C 337.251,999.92 335.585,998.587 334.5,996.5 Z"/></g>
<g><path style="opacity:1" fill="#ffffff" d="M 511.5,997.5 C 512.906,997.973 513.573,998.973 513.5,1000.5C 512.094,1000.03 511.427,999.027 511.5,997.5 Z"/></g>
<g><path style="opacity:1" fill="#ffffff" d="M 893.5,1035.5 C 892.323,1037.03 890.989,1038.53 889.5,1040C 888.207,1040.49 886.873,1040.66 885.5,1040.5C 887.629,1038.05 890.296,1036.38 893.5,1035.5 Z"/></g>
<g><path style="opacity:1" fill="#ffffff" d="M 866.5,1051.5 C 865.514,1053.41 863.848,1054.41 861.5,1054.5C 862.659,1052.75 864.326,1051.75 866.5,1051.5 Z"/></g>
<g><path style="opacity:1" fill="#ffffff" d="M 549.5,1056.5 C 548.833,1057.17 548.167,1057.83 547.5,1058.5C 546.957,1058.44 546.624,1058.11 546.5,1057.5C 547.325,1056.61 548.325,1056.28 549.5,1056.5 Z"/></g>
<g><path style="opacity:1" fill="#ffffff" d="M 849.5,1060.5 C 847.082,1063.71 843.748,1065.38 839.5,1065.5C 842.515,1063.33 845.849,1061.66 849.5,1060.5 Z"/></g>
<g><path style="opacity:1" fill="#ffffff" d="M 431.5,1061.5 C 433.967,1061.75 435.967,1062.75 437.5,1064.5C 435.033,1064.25 433.033,1063.25 431.5,1061.5 Z"/></g>
<g><path style="opacity:1" fill="#ffffff" d="M 441.5,1066.5 C 445.836,1066.84 449.503,1068.5 452.5,1071.5C 448.407,1070.62 444.74,1068.95 441.5,1066.5 Z"/></g>
<g><path style="opacity:1" fill="#ffffff" d="M 839.5,1065.5 C 837.526,1066.91 835.526,1068.41 833.5,1070C 831.655,1071.13 829.655,1071.63 827.5,1071.5C 831.158,1068.94 835.158,1066.94 839.5,1065.5 Z"/></g>
<g><path style="opacity:1" fill="#ffffff" d="M 452.5,1071.5 C 455.649,1071.42 458.316,1072.42 460.5,1074.5C 457.351,1074.58 454.684,1073.58 452.5,1071.5 Z"/></g>
<g><path style="opacity:1" fill="#ffffff" d="M 815.5,1076.5 C 811.377,1078.6 807.044,1080.27 802.5,1081.5C 806.215,1078.51 810.548,1076.84 815.5,1076.5 Z"/></g>
<g><path style="opacity:1" fill="#ffffff" d="M 492.5,1086.5 C 496.449,1086.98 500.283,1087.98 504,1089.5C 505.03,1089.16 505.53,1088.5 505.5,1087.5C 507.377,1088.83 507.544,1090.16 506,1091.5C 501.286,1090.1 496.786,1088.43 492.5,1086.5 Z"/></g>
<g><path style="opacity:1" fill="#ffffff" d="M 797.5,1083.5 C 790.443,1086.24 783.276,1088.91 776,1091.5C 775.308,1090.56 775.475,1089.9 776.5,1089.5C 783.378,1087.1 790.378,1085.1 797.5,1083.5 Z"/></g>
</svg>
