<svg xmlns="http://www.w3.org/2000/svg" width="1280" height="1280" viewBox="0 0 1280 1280" fill="none" style="shape-rendering:geometricPrecision; text-rendering:geometricPrecision; image-rendering:optimizeQuality; fill-rule:evenodd; clip-rule:evenodd">
<path fill="#000000" d="M 621.5,107.5 C 744.814,104.819 853.148,143.152 946.5,222.5C 921.507,223.666 896.507,223.833 871.5,223C 760.919,153.584 642.586,136.584 516.5,172C 477.866,183.855 441.866,200.855 408.5,223C 383.167,223.667 357.833,223.667 332.5,223C 415.48,151.869 511.813,113.369 621.5,107.5 Z"/>
<path fill="#000000" d="M 133.5,272.5 C 248.207,272.169 362.874,272.502 477.5,273.5C 526.002,357.171 574.502,440.838 623,524.5C 624.318,527.406 624.652,530.406 624,533.5C 602.647,570.213 581.314,606.879 560,643.5C 559.439,644.022 558.772,644.355 558,644.5C 554.429,639.702 551.096,634.702 548,629.5C 537.099,609.745 525.932,590.078 514.5,570.5C 488.167,569.167 461.833,569.167 435.5,570.5C 463.415,618.568 491.082,666.734 518.5,715C 497.566,753.036 475.733,790.536 453,827.5C 449.979,825.132 447.645,822.132 446,818.5C 343.288,640.394 240.621,462.394 138,284.5C 135.636,280.781 134.136,276.781 133.5,272.5 Z M 330.5,387.5 C 356.502,387.333 382.502,387.5 408.5,388C 421.673,409.343 434.34,431.01 446.5,453C 420.16,453.833 393.827,453.667 367.5,452.5C 354.646,431.016 342.312,409.349 330.5,387.5 Z"/>
<path fill="#000000" d="M 505.5,272.5 C 594.5,272.5 683.5,272.5 772.5,272.5C 772.54,275.425 771.707,278.091 770,280.5C 729.313,350.213 688.98,420.213 649,490.5C 645.98,495.887 642.48,500.887 638.5,505.5C 594.177,428.69 549.677,352.023 505,275.5C 504.53,274.423 504.697,273.423 505.5,272.5 Z"/>
<path fill="#000000" d="M 801.5,272.5 C 917.974,272.002 1034.31,272.502 1150.5,274C 1094,372.679 1037,471.012 979.5,569C 907.93,569.168 836.43,569.668 765,570.5C 732.021,629.128 698.021,687.128 663,744.5C 620.961,818.233 578.628,891.9 536,965.5C 535.311,966.357 534.478,967.023 533.5,967.5C 530.433,963.713 527.6,959.713 525,955.5C 506.076,921.581 486.742,887.915 467,854.5C 466.333,853.5 466.333,852.5 467,851.5C 579.042,658.741 690.542,465.741 801.5,272.5 Z M 870.5,387.5 C 898.169,387.333 925.835,387.5 953.5,388C 940.455,409.253 927.789,430.753 915.5,452.5C 888.175,453.5 860.841,453.833 833.5,453.5C 845.313,431.206 857.647,409.206 870.5,387.5 Z"/>
<path fill="#000000" d="M 185.5,465.5 C 186.458,465.953 187.292,466.619 188,467.5C 198.401,485.965 209.067,504.298 220,522.5C 206.707,667.645 252.541,790.145 357.5,890C 392.415,920.722 431.248,945.556 474,964.5C 485.343,983.856 496.676,1003.19 508,1022.5C 508.667,1023.5 508.667,1024.5 508,1025.5C 357.112,976.612 253.779,877.945 198,729.5C 168.73,642.676 164.563,554.676 185.5,465.5 Z"/>
<path fill="#000000" d="M 1093.5,469.5 C 1094.93,469.881 1095.76,470.881 1096,472.5C 1127.26,628.621 1091.59,766.954 989,887.5C 930.676,951.686 860.01,997.019 777,1023.5C 776.5,1023.17 776,1022.83 775.5,1022.5C 786.667,1002.83 797.833,983.167 809,963.5C 940.047,901.585 1021.71,799.585 1054,657.5C 1061.7,615.305 1063.53,572.805 1059.5,530C 1070.71,509.746 1082.04,489.579 1093.5,469.5 Z"/>
<path fill="#000000" d="M 776.5,593.5 C 839.167,593.5 901.833,593.5 964.5,593.5C 964.509,595.308 964.009,596.975 963,598.5C 856.05,783.319 749.217,968.319 642.5,1153.5C 641.5,1154.83 640.5,1154.83 639.5,1153.5C 609.28,1100.73 578.78,1048.07 548,995.5C 547.433,992.832 546.933,990.166 546.5,987.5C 547.822,987.67 548.989,987.337 550,986.5C 624.995,855.171 700.495,724.171 776.5,593.5 Z"/>
</svg>